<?xml version="1.0" standalone="no"?>
<!DOCTYPE svg PUBLIC "-//W3C//DTD SVG 20010904//EN"
 "http://www.w3.org/TR/2001/REC-SVG-20010904/DTD/svg10.dtd">
<svg version="1.0" xmlns="http://www.w3.org/2000/svg"
 width="640.000000pt" height="640.000000pt" viewBox="0 0 640.000000 640.000000"
 preserveAspectRatio="xMidYMid meet">
<metadata>
Created by potrace 1.14, written by Peter Selinger 2001-2017
</metadata>
<g transform="translate(0.000000,640.000000) scale(0.100000,-0.100000)"
fill="#000000" stroke="none">
<path d="M720 6383 c0 -10 7 -49 15 -86 36 -170 61 -467 42 -486 -6 -6 -10
-31 -11 -56 -1 -36 -5 -45 -18 -45 -24 0 -23 -13 2 -35 24 -22 27 -75 5 -75
-19 0 -21 -76 -2 -83 18 -6 -10 -37 -34 -37 -12 0 -19 -7 -19 -20 0 -13 7 -20
20 -20 16 0 20 -7 20 -36 0 -19 -6 -41 -13 -49 -8 -7 -48 -16 -90 -20 -66 -6
-78 -5 -83 9 -8 21 -60 21 -68 0 -3 -9 -6 -27 -6 -40 0 -21 -4 -24 -40 -24
l-40 0 0 -44 c0 -25 -5 -48 -10 -51 -6 -4 -7 -11 -4 -17 4 -6 10 -5 15 3 6 10
9 8 9 -8 0 -27 16 -39 24 -18 3 8 10 15 15 15 16 0 68 -49 52 -50 -13 0 -75
-26 -133 -56 -14 -8 -33 -14 -41 -14 -9 0 -23 -7 -32 -16 -27 -27 -165 -47
-165 -24 0 6 6 10 14 10 8 0 16 5 18 10 2 6 21 13 43 17 22 3 47 11 55 18 8 6
30 17 47 23 82 30 93 35 93 48 0 19 -17 17 -49 -5 -22 -16 -29 -17 -44 -6 -21
15 -22 35 -2 35 8 0 15 -4 15 -10 0 -13 27 -13 35 0 10 16 -42 35 -58 21 -8
-6 -42 -14 -76 -17 l-61 -7 0 32 c0 30 2 31 40 31 l40 0 0 55 0 55 -80 0 c-78
0 -80 1 -80 24 0 23 -49 76 -71 76 -5 0 -9 -357 -9 -900 0 -714 3 -900 13
-900 6 1 29 16 51 34 32 28 36 35 25 46 -12 11 -8 20 27 56 22 24 44 44 47 44
3 0 17 11 31 24 15 16 20 27 13 31 -7 3 -2 3 11 1 27 -5 45 22 40 62 -3 23 1
27 26 30 16 2 38 12 49 23 11 10 25 19 30 19 4 0 15 7 23 14 11 12 12 24 5 56
-8 38 -8 40 10 35 12 -4 21 -1 25 9 3 8 29 22 57 32 29 9 59 23 67 31 13 14
12 15 -12 11 -37 -7 -47 8 -39 62 6 42 8 45 39 48 19 2 38 11 45 23 14 23 50
25 67 4 17 -20 73 -19 135 2 28 10 51 18 53 19 7 4 -12 34 -22 34 -6 0 -17 9
-24 20 -7 11 -19 20 -26 20 -23 0 -30 57 -12 85 22 34 68 34 86 0 7 -14 19
-25 27 -25 7 0 13 -6 13 -14 0 -8 7 -17 16 -20 9 -4 14 -13 10 -21 -4 -11 3
-17 24 -22 17 -3 30 -9 30 -12 0 -4 26 -5 58 -3 46 3 61 0 80 -16 31 -28 28
-32 -24 -32 -38 0 -45 -3 -40 -16 3 -9 6 -26 6 -39 0 -31 20 -34 136 -22 68 7
102 15 110 25 6 9 18 13 28 9 21 -8 21 -26 -1 -33 -70 -21 -176 -86 -162 -98
13 -11 49 -16 49 -6 0 7 8 9 20 5 12 -4 27 -1 35 5 8 7 27 9 47 5 18 -4 53 -8
78 -9 34 -1 52 -9 71 -28 18 -18 33 -25 48 -21 12 3 21 1 21 -6 0 -6 7 -11 15
-11 8 0 19 -9 25 -20 10 -19 78 -60 100 -60 19 0 11 69 -10 87 -11 10 -20 24
-20 31 0 11 3 12 14 3 18 -15 25 3 21 50 -4 60 15 301 31 384 19 99 41 181 59
220 8 17 26 57 40 90 33 76 107 150 167 165 126 33 157 41 203 51 87 18 396
29 940 34 984 8 1486 18 1605 30 25 2 119 7 210 10 660 22 693 25 718 51 13
13 33 24 46 24 15 0 27 9 35 26 9 21 14 24 26 14 8 -7 15 -25 15 -41 0 -23 5
-29 23 -31 39 -2 61 2 77 17 8 8 36 17 60 21 25 4 53 13 62 21 12 11 36 14 90
11 68 -3 73 -2 76 19 2 12 15 26 32 33 29 12 145 124 177 171 9 13 23 28 30
32 10 6 13 95 13 442 l0 435 -1799 0 -1799 0 -5 -25 c-2 -15 -1 -78 4 -142 8
-125 5 -150 -17 -132 -10 8 -12 6 -8 -15 2 -13 0 -28 -6 -31 -5 -3 -10 1 -10
11 0 13 -3 14 -15 4 -12 -10 -15 -10 -15 1 0 11 -2 12 -9 1 -5 -9 -17 -11 -34
-7 -15 4 -25 11 -22 15 3 4 -1 23 -7 41 l-12 34 -8 -32 c-9 -36 -28 -45 -28
-14 0 11 -4 21 -10 23 -5 2 -12 23 -14 48 -3 25 -8 57 -12 71 -4 17 0 36 9 50
9 13 19 41 22 62 l7 37 -865 0 -866 0 -4 -32 -4 -33 -1 33 -2 32 -75 0 c-65 0
-75 -2 -75 -17z m272 -65 c-9 -9 -12 -7 -12 12 0 19 3 21 12 12 9 -9 9 -15 0
-24z m665 -62 c-2 -6 -12 -12 -23 -14 -10 -2 -28 -8 -40 -13 -30 -15 -89 -8
-89 11 0 10 12 16 35 18 19 2 38 7 42 11 12 11 79 0 75 -13z m-777 7 c0 -5 -6
-16 -14 -25 -10 -13 -15 -15 -24 -6 -20 20 -13 38 13 38 14 0 25 -3 25 -7z
m1930 -208 c0 -8 -4 -15 -10 -15 -5 0 -10 7 -10 15 0 8 5 15 10 15 6 0 10 -7
10 -15z m-1683 -167 c-3 -7 -5 -2 -5 12 0 14 2 19 5 13 2 -7 2 -19 0 -25z
m1640 6 c-3 -3 -12 -4 -19 -1 -8 3 -5 6 6 6 11 1 17 -2 13 -5z m-1580 -27 c13
-29 1 -52 -21 -44 -23 9 -31 34 -16 52 17 21 25 19 37 -8z m4612 -296 c20 -13
1 -56 -27 -63 -16 -5 -19 0 -20 33 -2 41 14 51 47 30z m-12 -97 c-3 -3 -12 -4
-19 -1 -8 3 -5 6 6 6 11 1 17 -2 13 -5z m-42 -74 c3 -5 1 -10 -4 -10 -6 0 -11
5 -11 10 0 6 2 10 4 10 3 0 8 -4 11 -10z m-5685 -49 c0 -20 -13 -41 -21 -35
-15 9 -10 44 6 44 8 0 15 -4 15 -9z m100 -111 c0 -28 -4 -40 -14 -40 -8 0 -16
-5 -18 -11 -3 -8 -10 -8 -26 2 -16 10 -22 23 -22 51 0 38 0 38 40 38 l40 0 0
-40z m688 23 c-2 -10 -13 -19 -26 -21 -12 -2 -22 -8 -22 -13 0 -5 -6 -9 -13
-9 -8 0 -45 -15 -83 -34 -38 -18 -70 -33 -72 -31 -1 1 1 16 4 34 5 21 11 30
20 27 7 -3 16 -1 19 4 4 6 15 10 26 10 10 0 19 7 19 15 0 11 12 15 49 15 28 0
53 5 56 10 10 17 27 11 23 -7z m-378 -67 c0 -11 -19 -15 -25 -6 -3 5 1 10 9
10 9 0 16 -2 16 -4z m-215 -106 c3 -5 1 -10 -4 -10 -6 0 -11 5 -11 10 0 6 2
10 4 10 3 0 8 -4 11 -10z m245 -25 c0 -2 -13 -8 -30 -14 -34 -11 -37 -9 -15
13 13 12 45 13 45 1z m-90 -69 c0 -3 -4 -8 -10 -11 -5 -3 -10 -1 -10 4 0 6 5
11 10 11 6 0 10 -2 10 -4z m600 -366 c0 -5 -7 -10 -15 -10 -8 0 -15 5 -15 10
0 6 7 10 15 10 8 0 15 -4 15 -10z m-210 -20 c0 -5 -5 -10 -11 -10 -5 0 -7 5
-4 10 3 6 8 10 11 10 2 0 4 -4 4 -10z m280 -20 c0 -5 -7 -7 -15 -4 -8 4 -15 8
-15 10 0 2 7 4 15 4 8 0 15 -4 15 -10z m88 -27 c-37 -4 -38 -5 -38 -44 0 -21
-4 -39 -10 -39 -11 0 -14 73 -3 83 3 4 25 6 47 5 l41 -1 -37 -4z m-188 -32
c32 -9 36 -54 5 -60 -11 -2 -23 -8 -26 -13 -7 -11 -29 -2 -29 12 0 5 8 11 18
13 11 3 8 5 -9 6 -29 1 -54 24 -44 41 7 11 46 12 85 1z m345 -108 c-22 -3 -43
-10 -47 -16 -5 -8 -8 -6 -8 6 0 14 8 17 48 15 47 -1 47 -1 7 -5z m-160 -93 c3
-5 1 -10 -4 -10 -6 0 -11 5 -11 10 0 6 2 10 4 10 3 0 8 -4 11 -10z m241 -87
c-10 -10 -19 5 -10 18 6 11 8 11 12 0 2 -7 1 -15 -2 -18z m238 -20 c-2 -40 -1
-39 -31 -38 -33 0 -39 28 -8 33 11 3 24 10 28 18 11 20 13 18 11 -13z m-149
-33 c3 -5 1 -10 -4 -10 -6 0 -11 5 -11 10 0 6 2 10 4 10 3 0 8 -4 11 -10z"/>
<path d="M2622 6180 c0 -14 2 -19 5 -12 2 6 2 18 0 25 -3 6 -5 1 -5 -13z"/>
<path d="M650 5400 c0 -29 4 -40 15 -40 11 0 15 11 15 40 0 29 -4 40 -15 40
-11 0 -15 -11 -15 -40z"/>
<path d="M320 5348 c0 -9 -8 -19 -19 -23 -10 -3 -26 -14 -36 -25 -18 -20 -17
-20 18 -20 36 0 37 -1 37 -40 0 -22 4 -40 9 -40 15 0 19 102 5 134 -7 17 -13
24 -14 14z"/>
<path d="M3746 4793 c-11 -11 -6 -39 15 -92 25 -59 41 -67 127 -57 92 10 161
32 181 58 l19 23 -44 13 c-24 7 -44 16 -44 21 0 15 -43 23 -135 25 -49 0 -95
4 -101 8 -6 4 -14 5 -18 1z"/>
<path d="M4292 4494 c-34 -41 -37 -50 -23 -59 12 -7 -31 -55 -49 -55 -8 0 -10
8 -6 24 3 14 1 28 -4 31 -6 4 -8 11 -5 16 4 5 -5 8 -19 7 -15 -1 -40 -20 -66
-49 -31 -35 -51 -49 -79 -54 -25 -4 -40 -13 -46 -28 -7 -15 -20 -23 -42 -25
-19 -2 -47 -17 -69 -38 -21 -19 -43 -34 -49 -34 -6 0 -21 -11 -33 -25 -12 -14
-28 -25 -37 -25 -8 0 -19 -9 -25 -21 -7 -12 -18 -18 -26 -15 -9 3 -18 -3 -23
-17 -5 -12 -26 -39 -46 -59 -20 -20 -35 -43 -33 -50 3 -7 -2 -19 -10 -27 -15
-16 -13 -76 8 -181 6 -30 13 -69 15 -86 10 -68 34 -154 49 -176 9 -12 16 -30
16 -40 0 -10 4 -18 9 -18 5 0 16 -18 25 -40 9 -22 20 -40 25 -40 5 0 12 -12
15 -26 4 -14 29 -65 55 -112 27 -48 56 -112 65 -143 9 -31 23 -62 31 -69 8 -7
15 -19 15 -26 0 -8 7 -14 15 -14 8 0 15 7 15 16 0 16 -39 94 -52 104 -9 7 -32
63 -30 73 1 4 -8 35 -19 70 -49 142 -14 319 80 407 33 31 53 59 60 86 6 22 22
50 36 62 14 12 25 27 25 33 0 14 41 48 58 49 7 0 18 12 25 28 6 15 17 31 24
35 7 4 13 16 13 25 0 10 16 42 35 72 19 30 35 59 35 64 0 5 16 40 36 79 21 41
33 76 29 86 -15 36 -14 117 1 158 23 61 13 72 -24 27z m-87 -171 c-4 -17 -10
-22 -16 -16 -6 6 -6 20 2 39 13 34 24 16 14 -23z"/>
<path d="M785 4450 c-3 -5 -1 -10 4 -10 6 0 11 5 11 10 0 6 -2 10 -4 10 -3 0
-8 -4 -11 -10z"/>
<path d="M5010 4436 c0 -2 7 -9 15 -16 9 -7 15 -8 15 -2 0 5 -7 12 -15 16 -8
3 -15 4 -15 2z"/>
<path d="M1726 4338 c-4 -35 -9 -89 -11 -120 -3 -32 -10 -81 -15 -110 -14 -74
-1 -358 17 -365 22 -9 45 18 38 45 -3 13 -8 154 -10 314 -3 160 -6 293 -9 295
-2 2 -6 -24 -10 -59z"/>
<path d="M948 4259 c-17 -18 -17 -19 22 -19 41 0 57 21 24 34 -22 8 -27 7 -46
-15z"/>
<path d="M800 4225 c0 -8 5 -15 10 -15 6 0 10 7 10 15 0 8 -4 15 -10 15 -5 0
-10 -7 -10 -15z"/>
<path d="M6155 4210 c-3 -5 -15 -10 -25 -10 -31 0 -32 -17 -1 -22 20 -3 32 1
40 13 6 11 7 20 1 24 -5 3 -11 1 -15 -5z"/>
<path d="M1088 4133 c7 -3 16 -2 19 1 4 3 -2 6 -13 5 -11 0 -14 -3 -6 -6z"/>
<path d="M1222 4088 c-14 -14 2 -38 25 -38 7 0 16 -7 19 -15 5 -11 10 -12 25
-2 23 14 24 33 5 53 -11 11 -16 11 -19 1 -4 -9 -6 -9 -6 1 -1 15 -33 16 -49 0z"/>
<path d="M942 3820 c0 -14 2 -19 5 -12 2 6 2 18 0 25 -3 6 -5 1 -5 -13z"/>
<path d="M1138 3761 c-59 -9 -97 -36 -112 -81 -15 -48 -55 -62 -95 -32 l-29
21 -16 -24 c-9 -13 -16 -33 -16 -45 0 -11 -7 -20 -15 -20 -8 0 -15 4 -15 9 0
19 -32 41 -59 41 -38 0 -54 -32 -43 -90 7 -42 10 -45 37 -43 19 2 39 -7 62
-27 19 -17 40 -30 47 -30 27 0 106 -111 106 -149 0 -6 6 -11 14 -11 8 0 16 16
20 40 3 23 12 49 18 60 10 15 9 26 -6 56 l-17 38 28 26 c16 15 33 25 39 23 10
-3 34 37 34 58 0 6 7 17 15 25 8 8 17 31 21 52 4 20 15 48 25 61 19 24 25 52
12 50 -5 -1 -29 -5 -55 -8z m-155 -251 c-17 -20 -44 -26 -57 -13 -3 4 8 12 26
19 47 17 50 16 31 -6z m-85 -1 c-2 -6 -8 -10 -13 -10 -5 0 -11 4 -13 10 -2 6
4 11 13 11 9 0 15 -5 13 -11z"/>
<path d="M4890 3670 c0 -30 78 -122 123 -146 18 -10 27 -22 27 -39 0 -15 9
-29 22 -36 18 -10 24 -8 40 11 10 12 18 29 18 37 0 24 20 4 36 -36 9 -23 26
-43 42 -51 15 -6 38 -17 52 -24 13 -6 31 -25 39 -41 8 -17 17 -37 21 -45 5 -9
-4 -29 -23 -53 -23 -30 -27 -41 -18 -50 10 -9 16 -8 27 7 20 28 24 17 11 -27
-13 -41 -25 -44 -88 -25 -29 8 -49 8 -74 1 -29 -9 -37 -8 -44 5 -5 9 -13 13
-18 9 -4 -5 0 -14 10 -21 9 -7 17 -20 17 -29 0 -21 50 -67 72 -67 10 0 18 -9
20 -22 3 -20 11 -24 57 -30 70 -8 103 -33 116 -89 12 -47 12 -47 86 -28 20 5
43 19 51 32 20 29 74 180 88 240 12 57 60 161 92 200 32 39 14 51 -85 56 -45
2 -90 9 -101 16 -10 8 -25 11 -34 8 -20 -8 -42 23 -42 58 0 15 -5 31 -10 34
-10 6 -50 -21 -93 -62 -16 -16 -18 -15 -32 3 -8 11 -15 14 -15 7 0 -22 -24
-14 -58 17 -18 17 -42 30 -52 30 -11 0 -25 7 -32 16 -30 38 -80 84 -92 84 -7
0 -40 13 -72 30 -62 31 -84 37 -84 20z"/>
<path d="M1560 3575 c-11 -13 -10 -14 4 -9 9 3 16 10 16 15 0 13 -6 11 -20 -6z"/>
<path d="M1425 3447 c-4 -10 -5 -21 -1 -24 10 -10 18 4 13 24 -4 17 -4 17 -12
0z"/>
<path d="M185 3188 c-5 -21 -4 -33 4 -36 17 -6 13 -32 -4 -32 -9 0 -18 -6 -21
-14 -3 -8 -11 -13 -18 -10 -8 3 -18 -8 -26 -25 -7 -17 -19 -31 -26 -31 -8 0
-14 -6 -15 -12 -1 -26 -18 28 -18 61 -1 33 -1 34 -21 16 -20 -18 -19 -55 2
-82 9 -11 5 -69 -5 -79 -2 -3 -7 13 -11 35 -3 22 -11 43 -16 46 -7 4 -10 -199
-10 -599 0 -333 3 -606 6 -606 3 0 26 12 51 26 40 24 44 30 38 53 -4 14 -7 41
-8 59 -1 18 -9 37 -17 42 -12 8 -11 13 8 33 26 28 28 55 5 72 -16 12 -15 17
11 69 24 47 28 68 27 125 -1 71 13 121 34 121 6 0 22 11 35 25 22 23 24 34 24
135 l0 109 22 -20 21 -20 59 70 c33 38 64 68 70 66 21 -6 33 11 40 54 6 36 5
43 -7 36 -12 -8 -12 -6 0 8 7 9 10 24 7 33 -4 9 -1 23 5 31 15 17 14 82 -1 97
-5 5 -10 22 -10 36 0 32 -33 55 -60 40 -26 -14 -40 -13 -40 4 0 11 -5 12 -24
3 -20 -10 -25 -21 -30 -71 -3 -33 -10 -64 -15 -69 -15 -15 -30 1 -37 39 -5 28
-2 40 15 58 27 28 27 42 0 57 -14 7 -19 17 -16 31 6 22 -1 48 -13 48 -5 0 -12
-14 -15 -32z m-9 -152 c3 -13 4 -37 2 -52 -3 -26 -7 -29 -43 -31 -22 -1 -35 0
-28 3 7 3 9 12 6 20 -6 17 -3 17 31 4 21 -8 26 -7 26 7 0 9 -7 21 -17 28 -9 7
-14 19 -10 29 9 23 26 20 33 -8z m188 -57 c-3 -5 -12 -9 -21 -9 -13 0 -12 -5
6 -24 12 -13 18 -26 14 -29 -10 -7 -43 27 -43 44 0 6 5 19 11 30 8 16 13 18
25 9 7 -7 11 -16 8 -21z m-204 -79 c0 -5 -5 -10 -11 -10 -5 0 -7 5 -4 10 3 6
8 10 11 10 2 0 4 -4 4 -10z"/>
<path d="M417 3193 c-12 -11 -7 -33 7 -33 12 0 26 20 26 36 0 7 -26 5 -33 -3z"/>
<path d="M3964 2984 c4 -14 2 -32 -4 -39 -8 -9 -6 -14 5 -19 8 -3 15 -14 15
-25 0 -23 23 -34 39 -18 18 18 13 44 -14 65 -14 11 -25 24 -24 29 3 19 -2 33
-12 33 -7 0 -9 -10 -5 -26z"/>
<path d="M4436 2817 c-15 -11 -15 -15 -4 -23 38 -30 65 -22 53 16 -7 23 -24
25 -49 7z"/>
<path d="M4050 2739 c0 -20 27 -33 36 -17 4 6 3 8 -4 4 -6 -3 -15 2 -21 11 -9
16 -10 16 -11 2z"/>
<path d="M4713 2565 c-3 -9 2 -24 12 -35 14 -15 20 -17 36 -7 24 15 24 34 0
47 -27 14 -41 13 -48 -5z"/>
<path d="M4240 2467 c0 -13 16 -46 35 -73 19 -27 35 -55 35 -63 0 -7 9 -29 21
-47 11 -19 18 -38 14 -44 -3 -6 1 -13 9 -16 9 -3 16 -16 16 -28 0 -11 16 -37
35 -56 35 -34 43 -50 26 -50 -6 0 3 -15 20 -32 16 -18 29 -36 29 -41 0 -5 14
-26 30 -47 17 -21 30 -50 30 -64 0 -15 7 -38 16 -51 9 -14 13 -32 10 -41 -5
-12 -2 -15 11 -10 9 4 19 2 23 -4 10 -16 36 -2 49 26 20 45 14 63 -36 93 -73
45 -81 55 -88 115 -6 47 -14 62 -46 95 -27 27 -39 48 -39 67 -1 31 -33 86
-123 206 -66 89 -77 98 -77 65z"/>
<path d="M4840 2436 c0 -7 37 -23 78 -32 24 -6 25 -5 12 9 -15 16 -90 35 -90
23z"/>
<path d="M5414 2401 c-15 -75 -112 -113 -254 -100 -47 4 -86 6 -88 4 -2 -1 13
-12 32 -23 19 -11 40 -32 48 -46 44 -83 82 -139 124 -182 70 -72 91 -142 59
-204 -13 -25 -13 -38 -1 -107 15 -85 13 -91 -35 -143 -13 -14 -35 -39 -49 -55
-14 -17 -50 -42 -80 -57 l-55 -26 33 -19 c69 -38 70 -40 32 -56 -35 -15 -35
-15 35 -12 65 3 71 5 90 33 11 17 31 37 45 45 14 9 63 54 109 101 79 81 83 87
67 104 -9 11 -17 39 -18 68 -3 49 -3 49 27 48 17 0 38 -4 48 -8 24 -11 23 19
-3 51 -11 14 -20 39 -20 55 0 21 -6 31 -18 35 -36 9 -75 112 -55 147 8 14 12
14 27 3 10 -7 20 -25 21 -39 5 -46 16 -88 24 -88 16 0 91 109 91 134 0 12 -72
45 -152 70 -20 6 -25 60 -9 85 6 10 4 27 -5 50 -9 20 -15 64 -15 99 0 60 -1
62 -25 62 -19 0 -26 -6 -30 -29z"/>
<path d="M626 2405 c-8 -22 4 -45 24 -45 22 0 33 47 13 54 -23 9 -30 7 -37 -9z"/>
<path d="M3166 2403 c-12 -12 -6 -33 9 -33 8 0 15 6 15 14 0 17 -14 28 -24 19z"/>
<path d="M631 2285 c-3 -24 -55 -34 -140 -29 l-86 6 -12 -27 c-10 -22 -9 -31
4 -51 15 -24 29 -29 71 -25 23 2 30 -13 11 -25 -6 -3 -9 -19 -5 -35 4 -22 1
-29 -14 -34 -25 -8 -25 -17 0 -40 20 -18 20 -18 -4 -40 -21 -20 -24 -29 -21
-86 5 -85 8 -99 28 -111 21 -11 22 -28 2 -28 -10 0 0 -13 22 -32 49 -42 54
-50 47 -68 -11 -28 -9 -35 9 -34 10 1 17 -5 17 -17 0 -10 -7 -19 -15 -19 -19
0 -19 -13 0 -50 13 -24 13 -30 2 -30 -7 0 -24 -12 -36 -26 -17 -19 -25 -23
-31 -14 -5 9 -9 8 -13 -3 -9 -23 -57 -9 -68 20 -7 19 -15 24 -36 21 -37 -4
-41 -31 -9 -59 14 -13 26 -33 26 -45 0 -13 5 -26 11 -29 6 -4 9 -21 7 -38 -2
-24 2 -34 19 -43 13 -6 20 -14 16 -18 -14 -13 -11 -106 3 -117 15 -12 21 -3
26 41 4 37 22 30 26 -10 2 -20 12 -40 23 -48 20 -14 28 -82 9 -82 -5 0 -10 -9
-10 -20 0 -11 5 -20 10 -20 6 0 10 5 10 10 0 6 4 10 8 10 4 0 8 -12 7 -27 0
-18 7 -31 23 -39 12 -6 33 -21 46 -33 21 -20 22 -27 14 -59 -8 -32 -10 -85 -5
-154 2 -29 17 -21 24 12 7 36 28 35 29 -1 0 -15 14 -39 35 -58 18 -19 29 -36
23 -38 -12 -4 -10 -59 4 -76 9 -11 26 -84 27 -117 0 -8 6 -25 13 -38 8 -13 11
-29 9 -37 -3 -7 -1 -17 5 -23 6 -6 5 -17 -4 -31 -18 -29 -30 -22 -34 22 -4 45
-10 57 -30 57 -19 0 -18 16 2 24 18 7 14 23 -25 108 -24 54 -51 76 -51 43 0
-8 -5 -15 -11 -15 -5 0 -8 4 -4 9 3 5 -6 22 -20 37 -14 15 -25 33 -25 40 0 8
-4 14 -9 14 -5 0 -8 -16 -6 -36 4 -49 -26 -61 -64 -25 l-26 26 -3 -25 c-2 -13
1 -26 7 -28 7 -2 5 -9 -5 -19 -8 -9 -13 -22 -10 -29 3 -8 1 -26 -4 -40 -8 -21
-13 -24 -25 -14 -7 6 -15 23 -17 37 -3 30 -50 69 -68 58 -9 -6 -5 -12 14 -22
23 -12 25 -17 15 -30 -8 -8 -12 -30 -10 -49 1 -19 -2 -34 -8 -34 -6 0 -11 15
-11 33 0 26 -6 36 -25 45 -15 7 -25 20 -25 32 0 11 -7 20 -15 20 -18 0 -19 12
-2 29 10 10 8 15 -7 27 -30 22 -36 17 -36 -26 0 -35 3 -40 23 -40 21 -1 22 -1
3 -15 -25 -19 -50 -19 -65 -1 -10 11 -8 17 6 25 10 6 13 11 6 11 -6 0 -15 9
-18 20 -3 11 -13 20 -21 20 -12 0 -14 7 -9 29 3 16 2 32 -3 35 -14 8 -21 -14
-15 -49 2 -17 6 -39 7 -50 3 -22 -9 -48 -36 -79 -18 -20 -18 -20 -18 2 0 11 4
24 10 27 16 10 12 65 -5 65 -8 0 -16 -6 -17 -12 0 -7 -2 -17 -2 -23 -3 -21
-21 -19 -24 3 -4 25 -30 30 -38 7 -4 -8 -12 -15 -20 -15 -8 0 -14 -10 -14 -26
0 -23 2 -25 16 -13 14 11 18 10 30 -6 9 -12 11 -21 4 -23 -5 -2 -7 -8 -4 -13
3 -6 0 -16 -6 -24 -24 -29 -38 -132 -40 -287 l-1 -158 271 0 270 1 0 35 c0 77
53 133 131 139 47 4 115 -10 129 -26 3 -3 24 -18 48 -33 47 -29 56 -56 18 -56
-14 0 -27 4 -31 9 -9 15 -78 0 -102 -22 -54 -49 -97 -47 1068 -47 1034 0 1090
1 1085 18 -5 15 -53 105 -104 197 -9 17 -23 34 -29 38 -7 4 -13 14 -13 21 0
16 -91 202 -145 296 -54 96 -97 202 -86 213 5 5 7 15 4 23 -3 7 5 27 17 44 21
30 21 30 53 13 18 -9 44 -30 59 -47 l26 -30 54 52 c29 29 69 57 88 63 19 6 42
13 50 16 15 6 40 10 102 17 17 1 36 10 42 19 9 11 17 13 30 5 20 -11 50 -3 41
12 -4 6 7 10 27 10 36 0 60 -18 118 -88 32 -39 60 -54 60 -33 0 5 -7 25 -15
45 -14 33 -14 37 3 54 32 32 51 33 100 5 26 -15 49 -30 52 -33 16 -18 60 -39
65 -30 4 6 13 7 24 1 32 -18 41 0 31 62 -5 32 -11 61 -14 65 -3 4 -1 14 4 22
7 11 17 -3 40 -52 16 -37 30 -71 30 -76 0 -4 10 -28 22 -53 23 -48 57 -139
149 -399 13 -37 36 -93 50 -122 5 -10 9 -23 9 -28 0 -6 8 -30 19 -53 22 -49
85 -212 95 -244 7 -23 11 -23 157 -23 l149 0 0 98 c0 53 3 163 7 245 4 107 3
147 -6 147 -6 0 -11 -8 -12 -17 0 -14 -2 -15 -6 -3 -16 43 -44 69 -74 68 -17
-1 -33 -7 -36 -14 -8 -22 -20 -7 -28 33 -4 24 -9 32 -15 24 -6 -11 -9 -11 -16
0 -4 7 -3 14 4 17 19 6 14 19 -23 57 -21 20 -46 35 -59 35 -13 0 -29 7 -36 15
-7 8 -20 15 -29 15 -14 1 -14 2 2 11 23 14 22 28 -7 54 -20 18 -26 20 -30 8
-3 -8 -10 -12 -15 -9 -16 10 -52 87 -45 97 3 6 -3 13 -15 16 -27 7 -27 29 -1
36 28 7 25 20 -9 35 -20 9 -32 23 -36 43 -4 16 -13 29 -21 29 -8 0 -16 15 -20
40 -5 29 -16 47 -39 66 -19 15 -31 32 -28 40 3 8 0 14 -7 14 -6 0 -8 4 -5 10
3 5 -1 20 -9 32 -9 12 -16 29 -16 38 0 9 -9 24 -21 34 -13 11 -19 25 -16 37 3
10 1 22 -4 25 -5 3 -9 12 -9 21 0 9 -11 31 -25 49 -14 18 -25 40 -25 48 0 9
-7 16 -16 16 -12 0 -15 6 -10 26 6 21 4 25 -8 21 -20 -8 -32 15 -41 75 -4 26
-11 46 -15 43 -5 -3 -5 8 0 24 9 33 5 41 -22 41 -13 0 -18 7 -18 25 0 16 -6
25 -16 25 -12 0 -15 7 -12 25 3 14 0 29 -7 35 -7 6 -18 32 -24 58 -7 26 -23
83 -36 127 -14 44 -29 102 -35 128 -14 63 -36 117 -49 117 -6 0 -9 -25 -7 -60
2 -33 -1 -60 -6 -60 -5 0 -7 -14 -3 -30 4 -18 2 -36 -5 -45 -8 -10 -8 -18 2
-34 10 -16 10 -23 0 -33 -6 -6 -12 -25 -12 -41 0 -17 -8 -36 -17 -43 -15 -10
-16 -15 -5 -25 24 -25 13 -49 -32 -70 l-44 -19 14 -41 c8 -23 12 -49 10 -58
-3 -9 -7 -29 -10 -45 -3 -16 -9 -32 -14 -35 -5 -3 -13 -20 -16 -38 -7 -29 -10
-31 -31 -23 -21 8 -24 6 -27 -17 -4 -33 -35 -54 -48 -33 -7 11 -11 8 -20 -15
-11 -27 -13 -29 -24 -12 -16 21 -36 22 -36 2 0 -8 -4 -15 -10 -15 -5 0 -10 15
-10 34 0 73 -24 41 -45 -58 -6 -26 -7 -27 -24 -12 -22 20 -40 20 -47 1 -8 -20
-24 -19 -24 1 0 27 -24 9 -32 -24 -5 -18 -17 -38 -28 -45 -11 -6 -21 -23 -21
-37 -1 -17 -3 -19 -6 -7 -6 23 -23 22 -23 -2 0 -12 -9 -20 -25 -23 -23 -5 -25
-2 -26 31 0 20 -3 30 -6 24 -2 -7 -11 -13 -19 -13 -8 0 -14 -6 -14 -13 0 -7
-17 -32 -38 -55 -28 -31 -48 -44 -74 -47 -49 -6 -88 -22 -88 -36 0 -6 -9 -22
-19 -35 l-19 -24 -7 40 c-4 22 -10 40 -13 40 -8 0 -52 -44 -117 -116 -26 -28
-62 -60 -81 -70 -33 -18 -36 -18 -48 -2 -7 10 -17 14 -22 9 -5 -5 -19 -12 -31
-16 -18 -5 -23 -2 -23 10 0 12 -5 15 -17 10 -10 -4 -45 -8 -78 -9 -33 -1 -67
-6 -77 -10 -11 -5 -18 -2 -23 13 -3 12 -15 21 -26 21 -14 0 -19 7 -19 29 0 47
-22 57 -70 30 l-42 -24 -16 22 c-9 12 -28 23 -42 25 -15 2 -30 13 -38 31 -7
15 -18 27 -25 27 -7 0 -6 -4 3 -10 8 -5 11 -13 6 -17 -4 -4 -16 2 -26 15 -10
12 -29 22 -43 22 -21 0 -26 6 -29 27 -2 17 -10 29 -21 31 -13 3 -17 -2 -15
-15 2 -11 -3 -18 -12 -18 -8 0 -16 9 -18 20 -2 11 -11 28 -19 37 -9 9 -12 25
-9 36 7 22 -16 52 -40 52 -9 0 -22 -7 -30 -15 -23 -22 -54 -19 -54 5 0 26 -20
26 -27 1 -5 -19 -6 -19 -31 4 -18 17 -33 22 -52 18 -18 -3 -29 0 -33 10 -3 8
-24 17 -46 21 -31 5 -45 13 -53 31 -6 13 -24 29 -40 34 -39 14 -45 37 -19 71
l21 29 -30 17 c-16 10 -31 23 -33 28 -7 20 25 116 39 116 21 0 29 47 11 65 -9
8 -19 15 -24 15 -5 0 -15 16 -22 35 -6 19 -15 34 -19 34 -18 -3 -32 2 -48 19
-10 9 -27 17 -38 17 -18 0 -22 8 -28 55 -4 30 -5 67 -2 81 3 19 0 28 -11 33
-9 3 -14 10 -10 15 3 6 12 8 20 5 8 -3 19 4 26 18 7 13 20 29 31 36 27 19 22
42 -12 53 -16 6 -30 17 -30 25 0 8 -9 14 -20 14 -11 0 -20 -4 -20 -10 0 -17
-18 -11 -23 8 -3 9 -5 13 -6 7z m69 -89 c0 -2 3 -11 6 -20 4 -10 1 -16 -9 -16
-8 0 -17 9 -20 20 -3 13 0 20 9 20 8 0 14 -2 14 -4z m2163 -736 c-3 -11 -7
-20 -9 -20 -2 0 -4 9 -4 20 0 11 4 20 9 20 5 0 7 -9 4 -20z m-613 -310 c-20
-13 -33 -13 -25 0 3 6 14 10 23 10 15 0 15 -2 2 -10z m-352 -403 c18 -18 30
-36 26 -39 -3 -4 2 -18 12 -32 15 -25 15 -28 0 -45 -9 -9 -16 -31 -15 -47 1
-32 28 -85 47 -92 17 -5 15 29 -3 52 -20 27 -19 36 5 36 13 0 24 10 30 25 11
29 17 31 42 8 11 -10 18 -30 18 -51 0 -20 2 -33 5 -30 3 3 18 -7 33 -22 15
-15 33 -29 40 -31 22 -7 3 -35 -31 -45 -26 -7 -31 -13 -29 -34 1 -14 7 -26 12
-28 18 -6 10 -41 -11 -52 -11 -7 -32 -9 -46 -5 -19 4 -31 0 -48 -20 -33 -35
-51 -32 -59 10 -4 20 -16 39 -27 45 -11 6 -17 15 -13 21 11 18 -25 59 -51 59
-28 0 -35 20 -7 20 15 1 15 2 -2 15 -16 12 -18 19 -8 40 7 14 20 25 31 25 17
0 31 18 31 41 0 6 -8 8 -19 4 -13 -4 -20 0 -24 16 -7 25 16 48 46 49 21 0 23
18 2 26 -10 4 -13 14 -9 28 3 14 -2 28 -15 40 -12 11 -21 15 -21 10 0 -5 -4
-2 -9 6 -6 8 -7 18 -5 22 11 17 42 6 72 -25z m56 -23 c3 -8 2 -12 -4 -9 -6 3
-10 10 -10 16 0 14 7 11 14 -7z m-107 -52 c-8 -11 -13 -9 -23 10 -11 20 -10
24 4 29 21 8 34 -20 19 -39z m539 -47 c15 -14 22 -25 16 -25 -6 0 -14 -9 -17
-21 -7 -21 -15 -20 -19 3 -1 7 -7 23 -14 35 -23 42 -7 46 34 8z m-418 -7 c-6
-18 -28 -21 -28 -4 0 9 7 16 16 16 9 0 14 -5 12 -12z m-165 -41 c7 -18 -8 -41
-21 -33 -11 7 -4 46 8 46 4 0 10 -6 13 -13z m-1198 -17 c3 -6 -1 -13 -10 -16
-9 -4 -21 -16 -25 -28 -7 -17 -9 -14 -9 17 -1 30 3 37 18 37 11 0 23 -5 26
-10z m-89 -48 c-12 -11 -18 7 -10 30 l8 23 4 -23 c2 -13 1 -26 -2 -30z m136
33 c14 -6 16 -63 3 -85 -11 -18 -23 12 -24 58 -1 34 0 35 21 27z m-371 -117
c10 -10 24 -18 29 -18 6 0 10 -7 10 -15 0 -26 -40 -17 -50 11 -7 18 -15 24
-26 20 -9 -3 -20 -6 -26 -6 -6 0 -8 -12 -4 -30 4 -23 2 -30 -10 -30 -11 0 -15
6 -11 20 3 11 1 20 -4 20 -5 0 -9 7 -9 15 0 8 8 15 19 15 11 0 21 9 24 21 6
22 8 22 58 -23z m246 -41 c2 -34 -1 -57 -7 -57 -5 0 -10 5 -10 10 0 6 -9 10
-20 10 -13 0 -24 10 -30 26 -13 33 -13 34 6 34 8 0 12 -4 9 -10 -3 -5 -3 -10
0 -10 3 0 11 14 17 30 16 46 31 31 35 -33z m1245 48 c0 -5 -5 -11 -11 -13 -6
-2 -11 4 -11 13 0 9 5 15 11 13 6 -2 11 -8 11 -13z m728 1 c0 -3 -4 -8 -10
-11 -5 -3 -10 -1 -10 4 0 6 5 11 10 11 6 0 10 -2 10 -4z m-650 -66 c14 0 18
-49 4 -54 -20 -8 -50 64 -32 76 8 4 14 2 16 -7 2 -8 7 -15 12 -15z m775 20 c3
-5 1 -10 -4 -10 -6 0 -11 5 -11 10 0 6 2 10 4 10 3 0 8 -4 11 -10z m-2242 -67
c3 -16 2 -32 -2 -36 -10 -10 -44 40 -36 53 12 19 33 10 38 -17z m111 -19 c3
-8 2 -12 -4 -9 -6 3 -10 10 -10 16 0 14 7 11 14 -7z m1391 -4 c3 -5 2 -10 -4
-10 -5 0 -13 5 -16 10 -3 6 -2 10 4 10 5 0 13 -4 16 -10z m785 0 c0 -5 -5 -10
-11 -10 -5 0 -7 5 -4 10 3 6 8 10 11 10 2 0 4 -4 4 -10z m-875 -57 c4 -14 2
-23 -4 -23 -6 0 -11 3 -11 8 0 4 -3 18 -6 32 -8 31 11 16 21 -17z m340 -18
c14 -14 25 -32 25 -40 0 -8 11 -25 25 -39 14 -14 25 -34 25 -46 0 -15 -6 -20
-25 -20 -14 0 -25 4 -25 8 0 4 -19 8 -41 9 -23 1 -43 4 -46 7 -3 2 5 18 17 34
17 23 21 40 18 71 -2 23 -2 41 -1 41 1 0 14 -11 28 -25z m-145 -15 c-9 -6 -9
-9 1 -16 7 -4 14 -3 17 4 9 28 22 8 22 -33 0 -49 -15 -59 -30 -21 -5 13 -14
27 -19 31 -15 9 -14 38 1 53 9 9 14 10 17 1 2 -6 -2 -15 -9 -19z m-44 -33 c10
-6 11 -13 5 -25 -5 -10 -7 -30 -4 -45 8 -40 -13 -33 -27 9 -7 21 -9 50 -4 72
5 27 9 32 12 17 2 -11 11 -24 18 -28z m124 -21 c0 -3 -4 -8 -10 -11 -5 -3 -10
-1 -10 4 0 6 5 11 10 11 6 0 10 -2 10 -4z"/>
<path d="M1991 571 c-8 -6 -9 -11 -3 -15 6 -3 14 -1 17 5 9 14 2 20 -14 10z"/>
<path d="M1915 474 c9 -9 18 -14 21 -11 9 9 -6 27 -22 27 -13 0 -13 -2 1 -16z"/>
<path d="M1950 396 c0 -17 7 -27 23 -32 12 -4 25 -12 29 -18 5 -7 8 -5 8 5 0
16 -40 69 -53 69 -4 0 -7 -11 -7 -24z"/>
<path d="M2125 160 c-8 -24 1 -40 22 -40 10 0 13 6 9 16 -3 9 -6 22 -6 30 0
21 -18 17 -25 -6z"/>
<path d="M326 2123 c9 -51 16 -60 25 -35 9 23 -7 72 -23 72 -5 0 -6 -17 -2
-37z"/>
<path d="M5950 1992 c-16 -14 -30 -31 -30 -38 0 -8 -8 -14 -18 -14 -26 0 -34
-11 -20 -27 10 -12 8 -14 -8 -11 -12 2 -19 -3 -19 -12 0 -8 -4 -18 -10 -22 -7
-5 -6 -8 1 -8 6 0 21 11 34 25 13 14 29 25 36 25 7 0 34 20 60 45 25 25 50 45
55 45 5 0 9 4 9 9 0 19 -61 7 -90 -17z"/>
<path d="M796 1936 c3 -9 11 -16 16 -16 13 0 5 23 -10 28 -7 2 -10 -2 -6 -12z"/>
<path d="M3112 1878 c5 -15 28 -23 28 -10 0 5 -7 13 -16 16 -10 4 -14 1 -12
-6z"/>
<path d="M4811 1801 c-11 -7 -9 -14 11 -33 14 -12 40 -28 57 -35 29 -11 31
-10 31 13 0 17 -10 31 -32 44 -37 22 -47 24 -67 11z"/>
<path d="M4695 1663 c-21 -5 -35 -21 -35 -38 0 -10 22 -36 112 -134 26 -28 44
-51 41 -51 -4 0 -2 -5 4 -11 7 -7 30 -2 79 19 38 16 87 32 109 36 l40 8 -79
38 c-44 22 -90 50 -103 64 -28 30 -35 31 -68 10 -23 -15 -24 -15 -31 13 -7 25
-31 54 -44 52 -3 -1 -14 -4 -25 -6z"/>
<path d="M3030 1650 c0 -5 5 -10 10 -10 6 0 10 5 10 10 0 6 -4 10 -10 10 -5 0
-10 -4 -10 -10z"/>
<path d="M945 1510 c3 -5 8 -10 11 -10 2 0 4 5 4 10 0 6 -5 10 -11 10 -5 0 -7
-4 -4 -10z"/>
<path d="M5120 1359 c0 -5 5 -7 10 -4 6 3 10 8 10 11 0 2 -4 4 -10 4 -5 0 -10
-5 -10 -11z"/>
<path d="M5025 1295 c-27 -19 -61 -42 -75 -52 -32 -22 -166 -159 -205 -208
-32 -41 -125 -192 -125 -203 0 -9 49 51 50 60 0 12 62 97 97 137 18 20 33 39
33 44 0 4 6 7 13 7 7 0 23 14 37 30 14 17 44 42 67 57 23 14 40 30 37 34 -5 8
36 35 48 31 4 -1 16 14 28 33 12 19 31 42 43 50 12 8 17 15 12 15 -6 -1 -32
-16 -60 -35z"/>
<path d="M225 1260 c-4 -6 -2 -17 4 -24 9 -11 7 -15 -10 -19 -26 -7 -20 -31 9
-35 25 -4 29 -20 7 -36 -15 -11 -10 -60 5 -51 10 6 2 -72 -12 -107 -6 -16 -16
-28 -23 -28 -12 0 -45 -31 -45 -43 0 -4 9 -7 20 -7 11 0 20 -5 20 -12 0 -6 13
0 28 15 25 24 29 35 29 88 1 46 5 63 19 73 27 20 28 93 2 107 -14 7 -18 17
-14 31 9 37 -22 75 -39 48z"/>
<path d="M322 1251 c2 -7 7 -12 11 -12 12 1 9 15 -3 20 -7 2 -11 -2 -8 -8z"/>
<path d="M22 1181 c-19 -14 -23 -24 -19 -52 4 -30 5 -32 12 -11 4 12 16 22 26
22 20 0 23 12 11 42 -7 16 -9 16 -30 -1z"/>
<path d="M481 1114 c0 -11 3 -14 6 -6 3 7 2 16 -1 19 -3 4 -6 -2 -5 -13z"/>
<path d="M64 1089 c-5 -19 -9 -38 -9 -44 0 -5 -4 -16 -9 -23 -12 -20 8 -36 22
-19 15 18 24 88 13 106 -6 10 -11 4 -17 -20z"/>
<path d="M355 1070 c-3 -5 -1 -10 4 -10 6 0 11 5 11 10 0 6 -2 10 -4 10 -3 0
-8 -4 -11 -10z"/>
<path d="M133 1000 c0 -25 2 -35 4 -22 2 12 2 32 0 45 -2 12 -4 2 -4 -23z"/>
<path d="M5247 1008 c-23 -98 28 -434 63 -413 6 4 8 14 5 24 -10 31 -45 295
-45 341 0 54 -14 84 -23 48z"/>
<path d="M10 944 c-15 -37 -12 -42 10 -15 22 26 26 41 10 41 -6 0 -15 -12 -20
-26z"/>
<path d="M283 951 c-1 -14 3 -17 18 -14 14 4 19 0 19 -16 0 -24 18 -28 27 -6
7 19 -24 55 -46 55 -9 0 -17 -8 -18 -19z"/>
<path d="M407 964 c-4 -4 -7 -14 -7 -23 0 -11 3 -12 11 -4 6 6 10 16 7 23 -2
6 -7 8 -11 4z"/>
<path d="M280 900 c0 -19 3 -21 12 -12 9 9 9 15 0 24 -9 9 -12 7 -12 -12z"/>
<path d="M530 898 c0 -28 8 -39 36 -55 20 -11 22 -9 26 17 6 39 -8 60 -37 60
-19 0 -25 -5 -25 -22z"/>
<path d="M407 843 c-9 -8 -9 -70 -1 -100 12 -44 23 -23 20 37 -3 61 -7 75 -19
63z"/>
<path d="M4596 785 c-10 -18 -16 -39 -14 -46 2 -7 12 7 22 30 21 53 17 62 -8
16z"/>
<path d="M18 793 c6 -2 18 -2 25 0 6 3 1 5 -13 5 -14 0 -19 -2 -12 -5z"/>
<path d="M125 759 c-4 -5 0 -18 8 -27 8 -9 17 -24 20 -32 3 -8 6 4 6 28 1 30
-3 42 -13 42 -8 0 -18 -5 -21 -11z"/>
<path d="M197 723 c8 -65 13 -67 13 -5 0 29 -4 52 -10 52 -6 0 -7 -19 -3 -47z"/>
<path d="M305 667 c-8 -19 -2 -31 13 -26 5 2 6 13 2 24 -7 19 -8 19 -15 2z"/>
<path d="M654 657 c-6 -18 12 -57 27 -57 15 0 7 63 -8 68 -7 2 -16 -3 -19 -11z"/>
<path d="M358 618 c-8 -21 2 -38 23 -38 21 0 25 20 7 38 -15 15 -25 15 -30 0z"/>
<path d="M4452 30 c0 -19 2 -27 5 -17 2 9 2 25 0 35 -3 9 -5 1 -5 -18z"/>
</g>
</svg>
